<svg version="1.2" xmlns="http://www.w3.org/2000/svg" viewBox="0 0 1524 1448" width="1524" height="1448">
	<title>AGL_Energy_logo-svg</title>
	<defs>
		<linearGradient id="g1" x1="558.5" y1="809.7" x2="140.5" y2="288.6" gradientUnits="userSpaceOnUse">
			<stop offset="0" stop-color="#4ce9f2"/>
			<stop offset=".6" stop-color="#00dfed"/>
			<stop offset=".6" stop-color="#00d6ea"/>
			<stop offset=".7" stop-color="#00bee3"/>
			<stop offset=".8" stop-color="#0096d6"/>
			<stop offset=".9" stop-color="#005fc5"/>
			<stop offset="1" stop-color="#001cb0"/>
		</linearGradient>
		<linearGradient id="g2" x1="518.5" y1="1078.9" x2="1.8" y2="992.7" gradientUnits="userSpaceOnUse">
			<stop offset="0" stop-color="#4ce9f2"/>
			<stop offset=".6" stop-color="#00dfed"/>
			<stop offset=".6" stop-color="#00d6ea"/>
			<stop offset=".7" stop-color="#00bee3"/>
			<stop offset=".8" stop-color="#0096d6"/>
			<stop offset=".9" stop-color="#005fc5"/>
			<stop offset="1" stop-color="#001cb0"/>
		</linearGradient>
		<linearGradient id="g3" x1="717.3" y1="665.1" x2="640.2" y2="1.5" gradientUnits="userSpaceOnUse">
			<stop offset="0" stop-color="#4ce9f2"/>
			<stop offset=".6" stop-color="#00dfed"/>
			<stop offset=".6" stop-color="#00d6ea"/>
			<stop offset=".7" stop-color="#00bee3"/>
			<stop offset=".8" stop-color="#0096d6"/>
			<stop offset=".9" stop-color="#005fc5"/>
			<stop offset="1" stop-color="#001cb0"/>
		</linearGradient>
		<linearGradient id="g4" x1="904.2" y1="670.1" x2="1095.9" y2="144.8" gradientUnits="userSpaceOnUse">
			<stop offset="0" stop-color="#4ce9f2"/>
			<stop offset=".6" stop-color="#00dfed"/>
			<stop offset=".6" stop-color="#00d6ea"/>
			<stop offset=".7" stop-color="#00bee3"/>
			<stop offset=".8" stop-color="#0096d6"/>
			<stop offset=".9" stop-color="#005fc5"/>
			<stop offset="1" stop-color="#001cb0"/>
		</linearGradient>
		<linearGradient id="g5" x1="1087.8" y1="756.3" x2="1343.9" y2="473.8" gradientUnits="userSpaceOnUse">
			<stop offset="0" stop-color="#4ce9f2"/>
			<stop offset=".6" stop-color="#00dfed"/>
			<stop offset=".6" stop-color="#00d6ea"/>
			<stop offset=".7" stop-color="#00bee3"/>
			<stop offset=".8" stop-color="#0096d6"/>
			<stop offset=".9" stop-color="#005fc5"/>
			<stop offset="1" stop-color="#001cb0"/>
		</linearGradient>
	</defs>
	<style>
		.s0 { fill: #000000 } 
		.s1 { fill: url(#g1) } 
		.s2 { fill: url(#g2) } 
		.s3 { fill: url(#g3) } 
		.s4 { fill: url(#g4) } 
		.s5 { fill: url(#g5) } 
	</style>
	<g id="Layer">
		<g id="g">
		</g>
		<g id="g">
		</g>
		<g id="g">
		</g>
		<g id="g">
		</g>
		<g id="g">
		</g>
		<g id="g">
		</g>
		<g id="g">
		</g>
		<g id="g">
		</g>
		<g id="g">
		</g>
		<g id="g">
		</g>
		<g id="g">
		</g>
		<g id="g">
		</g>
		<g id="g">
		</g>
		<g id="g">
		</g>
		<g id="g">
		</g>
		<g id="g">
		</g>
		<g id="g">
		</g>
		<g id="g">
		</g>
		<g id="g">
		</g>
		<g id="g">
		</g>
		<g id="g">
		</g>
		<g id="g">
		</g>
		<g id="g">
		</g>
		<g id="g">
		</g>
		<g id="g">
		</g>
		<g id="g">
		</g>
		<g id="g">
		</g>
		<g id="g">
		</g>
		<g id="g">
		</g>
		<g id="g">
		</g>
		<g id="g">
		</g>
		<g id="h">
		</g>
		<g id="h">
		</g>
		<g id="h">
		</g>
		<g id="i">
		</g>
	</g>
	<g id="Layer">
		<path id="Layer" fill-rule="evenodd" class="s0" d="m974.1 947c22.6 23.7 34.1 56.1 34.1 96.5v250h-29.6l-8.7-68.5c-13.5 22.6-31.3 40.6-52.8 53.5-23.3 14-51.4 21.1-83.4 21.1-16.6 0-32.4-2.3-46.8-7-14.6-4.7-27.4-11.9-38.1-21.2-10.7-9.5-19.2-21.1-25.2-34.7-6-13.5-9-29.3-9-47 0-40.6 14.2-71.4 42.4-91.8 28-20.2 69.5-30.4 123.6-30.4h88.5v-24c0-36-8.4-61.6-25-76-16.6-14.4-41.1-21.7-72.7-21.7-24.8 0-46.7 2.5-65.2 7.6-18.4 5-35.2 11.7-49.9 19.8l-2.3 1.3-9.9-30.4 1.6-0.9c13.9-8.3 31.9-15.7 53.5-22.2 21.7-6.4 46-9.7 72.2-9.7 45.5 0 80.1 12 102.7 35.7zm-93.5 154.9c-45.4 0-78.5 7.1-98.3 21.2-19.5 13.8-29.4 36.2-29.4 66.6 0 13 2.1 24.3 6.3 33.7 4.2 9.4 10.1 17.3 17.5 23.4 7.4 6.2 16.2 10.9 26.1 13.9 10 2.9 20.7 4.5 31.7 4.5 21.7 0 41-3.7 57.5-11 16.6-7.3 30.7-17 42-28.7 11.3-11.8 20.1-25.2 26.1-39.8 6-14.5 9.1-29.5 9.1-44.5v-39.3c0 0-88.6 0-88.6 0zm479.5-184.4h30.3v356.8c0 57.8-14.3 101.5-42.6 130-28.2 28.5-67.9 43-118 43-26.3 0-50.7-3.4-72.6-10.1-21.9-6.7-40.2-14-54.6-21.7l-1.6-0.9 10.6-32.7 2.3 1.2c14.1 7.6 31.4 14.3 51.5 19.8 19.9 5.6 42.1 8.4 65.9 8.4 18.1 0 34.7-2.4 49.3-7.2 14.4-4.7 26.9-12.6 37.1-23.3 10.2-10.7 18.4-25.1 24.1-42.6 5.8-17.7 8.7-39.4 8.7-64.7v-47.1c-12.8 21-29.1 38.2-48.4 51.3-21.6 14.5-47.5 21.9-77 21.9-22.7 0-44-3.7-63.4-10.9-19.5-7.3-36.6-19-50.9-34.8-14.2-15.8-25.5-36.3-33.5-60.8-8-24.5-12-54.3-12-88.8 0-30.4 4.1-57.8 12.4-81.5 8.2-23.7 19.6-44.1 33.9-60.7 14.2-16.6 30.9-29.3 49.5-37.9 18.7-8.5 38.9-12.9 60.2-12.9 17.1 0 32.8 2.5 46.9 7.5 13.9 4.9 26.6 11.3 37.8 19.1 11.1 7.7 20.8 16.4 28.9 25.7 6.3 7.4 11.9 14.9 16.5 22.4zm-64 52.9c-21-15.3-44.9-23.1-71-23.1-15.9 0-31.3 3.2-45.6 9.5-14.2 6.2-27 15.9-38 28.6-11.1 12.8-20 29.3-26.5 48.9-6.6 19.7-9.9 43.2-9.9 70 0 29.4 3.5 54.5 10.3 74.7 6.8 20.1 15.9 36.7 27.2 49.2 11.3 12.5 24.4 21.7 39.1 27.1 14.8 5.6 30.2 8.4 45.8 8.4 20.1 0 38-4 53.2-11.7 15.3-7.8 28.2-18.2 38.5-31 10.3-12.8 18.2-27.4 23.4-43.5 5.3-16.1 8-32.7 8-49.3v-96.3c-15.1-25.5-33.4-46.2-54.5-61.5zm187.5-199.8h39.8v522.9h-39.8z"/>
		<path id="Layer" class="s1" d="m140.8 288.8c26.9-21.7 66.7-17.3 88.3 9.7l339.3 423c21.6 26.9 17.2 66.7-9.7 88.3-27 21.7-66.7 17.3-88.3-9.7l-339.3-423c-21.7-26.9-17.3-66.7 9.7-88.3z"/>
		<path id="Layer" class="s2" d="m1.5 993.5c5.7-34.1 38.3-57.4 72.3-51.7l392.8 65.6c34 5.6 57.3 38.2 51.6 72.3-5.7 34.1-38.2 57.3-72.3 51.6l-392.8-65.5c-34-5.7-57.3-38.2-51.6-72.3z"/>
		<path id="Layer" class="s3" d="m640.5 1.1c34.3-4 65.6 20.8 69.6 55.2l62.6 538.7c3.9 34.3-20.9 65.7-55.2 69.7-34.3 3.9-65.6-20.9-69.6-55.2l-62.6-538.7c-4-34.4 20.8-65.7 55.2-69.7z"/>
		<path id="Layer" class="s4" d="m1096.1 144.6c32.4 11.9 49.3 48.1 37.4 80.6l-148.5 407.2c-11.9 32.5-48.1 49.3-80.6 37.5-32.5-11.8-49.3-48.1-37.5-80.6l148.6-407.2c11.9-32.5 48.1-49.3 80.6-37.5z"/>
		<path id="Layer" class="s5" d="m1344 473.6c25.6 23.3 27.5 63.2 4.4 88.8l-171.6 189.3c-23.3 25.7-63.2 27.6-88.8 4.4-25.6-23.2-27.5-63.1-4.3-88.7l171.6-189.4c23.2-25.6 63.1-27.6 88.7-4.4z"/>
	</g>
</svg>