<svg xmlns="http://www.w3.org/2000/svg" height="800" width="1200" version="1.0" viewBox="-60 -13.49855 520 80.9913"><g fill="#396f9d"><path d="M349.0621 29.9242c-1.122-.2066-2.2386.7071-2.821 1.5638-.8996 1.3932-.4613 3.4718.4006 4.6955.586-.057 1.2808-.007 1.758-.4365 1.1666-1.395 1.1007-3.5836.9313-5.504zm-103.6943-13.09c-.426.1088-.6913.4295-.9031.8048-.782 3.3683-.8143 7.2637-.5807 10.7872.1765 3.0959.4612 6.1894 1.9697 8.6904.3225.3189.9102.3154 1.3362.1536 1.699-1.4503 1.259-4.0113 1.4585-6.2005-.1848-4.6438-.4236-9.234-1.7274-13.3913-.3242-.586-.912-.8478-1.5532-.8442m27.7208-7.0413c.753 1.1167.3365 2.7735.9831 3.8919.376.3171.8531-.1653 1.0655-.326 1.6991-1.7185 2.8605-4.2872 5.8528-3.6635 1.8168.5236 2.3622 2.4969 3.4912 3.717 1.2255-.3258 2.3975-.8142 3.516-1.3001 2.718-.7625 5.1638-2.4846 8.1008-2.4475.3742.1053.8548.4224 1.019.8478.54 1.119-.0377 2.8305 1.0867 3.5712l.6948-.11c3.0276-2.6864 7.3919-5.1657 11.7786-3.3224 1.3914.579 2.0933 2.0716 3.114 3.2935.269.21.7496.1554 1.0685.0465 3.0281-2.6328 7.2318-5.2191 11.6185-3.427 2.7293 1.106 4.8256 3.7635 5.1103 6.7506.5172 6.564-.4077 13.1364.6949 19.5364.3241.6913 1.0207 1.1684 1.7156 1.272.427-.0042.4253-.483.5306-.752-.506-4.3213 1.3926-8.548 4.9074-10.3306 2.7658-1.5626 5.967-2.061 9.004-3.1994 1.7544-1.3961.883-4.382.4983-6.2482-.2154-.4795-.7514-.8495-1.1808-1.169-3.5248-.5677-4.1449 3.3883-5.9493 5.3192-.9543 1.1255-2.2316 1.7738-3.7813 1.6756-1.122-.1012-1.8739-1.1114-2.1463-2.1228-.4418-2.4545-.7766-5.335 1.4015-7.0018 4.626-3.39 11.1843-4.7597 17.116-3.9383 2.2974.3594 4.3337 1.8432 5.4127 3.8671 2.1162 6.02.0218 13.5065 1.0172 19.7465.1642.639.5401 1.1184 1.1826 1.382.8554.1012 1.9203-.1712 2.3533.7872.2171.5324.1142 1.3343.5966 1.7044.7466-.057 1.3838-.7548 1.7545-1.3979.7783-3.9542.1676-8.222.2512-12.4398-.4936-2.2928 1.0349-5.9317-1.9592-6.7154-.7484-.157-1.605-.6324-1.7709-1.4855-.1636-.7996-.1694-1.7062.3083-2.3493l1.222-.969c3.73-1.3555 7.4578-2.8716 11.4585-3.6412.586-.1082 1.0684.1018 1.4426.4742.9137 1.0084-.1424 2.9352 1.142 3.6765 2.2357-1.4002 4.2513-3.3329 7.2954-3.3505 2.7216-.1748 5.3439.9848 7.2766 2.8428 2.2015 2.4434 2.1145 5.8599 2.2921 9.1163-.0264 4.645-.2135 9.5023.4507 13.8772-.1441 2.8305 3.9101 2.221 3.34 5.2668-.1553.9084-.7925 1.7139-1.6444 2.091-2.6128.4418-5.6051.0324-8.4339.0465-2.2957-.2012-5.4933 1.1525-7-1.1343-.8084-1.4915.0888-3.0977 1.0437-4.2237.8802-5.0762.8996-11.109.0694-16.337-.3277-1.4391-1.3996-2.287-2.7375-2.7076-.746.0035-1.6015-.0441-2.1322.4383-.5307.6448.0606 1.3897-.3083 2.084-.0247 5.2332.269 10.1958.5666 15.4791.5413 1.5991 2.791 2.8676 1.735 4.848-.9496 2.3545-3.8883 1.6244-5.917 1.7956-3.2581-.303-6.457.4095-9.6099-.2136-.6966-.3707-1.2343-1.062-1.5585-1.8062l-.4277-.1053c-3.0347 1.5656-6.1181 3.7177-9.9123 3.2576-1.7098-.2559-2.467-2.0674-3.5407-3.1294-1.172.2742-1.755 1.238-2.8199 1.7774-2.6057 1.5627-6.6618 2.1198-9.3923.3724-.8036-.4218-1.2896-1.4867-2.198-1.6956-1.2167 2.248-3.89 1.3038-6.0258 1.475-3.523-.1406-6.457.463-9.77-.2653-.6965-.3707-.809-1.1702-1.026-1.8633-.2777-2.0804 2.228-2.7358 1.895-4.8697.346-5.1262.846-11.0543-1.1537-15.6357-.4313-.6907-1.0743-1.1685-1.8774-1.4303-.6395.0036-1.495-.1512-1.9203.3313-.7943.8054-.5219 2.031-.5684 3.0993l.3495 14.9998c.543 1.5444 2.3651 2.8693 1.2002 4.6914-.3706.4813-.7425.912-1.382.9672-3.523.02-7.1536.0947-10.5695.0606-.7484-.103-1.552-.5254-1.8757-1.272-.7571-1.7573.6766-3.1005 1.4691-4.3849.6678-4.9161.2654-9.9323-.4024-14.7326-.4348-1.5991-1.1914-3.3041-2.85-3.8277-.6412-.1565-1.496-.2065-1.9732.2247l-.3171.6413c-.1818 5.714.0106 11.478.3077 17.0283.2212 1.5474 2.5222 2.228 2.1574 4.0466-.1.9067-.5236 1.6568-1.375 2.0892-2.8269.549-5.8192.0324-8.5409.1536-2.5116-.3065-6.2399 1.3161-7.4295-1.5073-.1124-.7996-.0624-1.6545.3077-2.244.8484-1.0725 2.1821-1.026 2.8164-2.364.8837-4.383.16-9.5028.3494-13.9895-.2747-1.279.1442-2.9905-.9284-3.7312-.3206-.0518-.4789.3224-.5306.5377-.3595 2.4563-1.4144 4.9715-3.919 5.6799-3.3094.3388-3.6494-3.5036-5.7922-4.7197-.4812-.05-1.0137.0588-1.1702.5413-.0853 4.1113.2048 8.325.4419 12.381.2741 1.3879.7619 2.7734 2.1533 3.2988 1.122.2618 2.727.7343 3.3753 2.118.2177.8514.3312 2.0251-.253 2.67-.6872.9636-1.861 1.2378-2.821 1.243-5.1816-.2917-11.2133-.1511-16.3377-.0158-.6942-.05-1.3908-.5254-1.7133-1.1114-.4312-.6377-.383-1.6532-.2282-2.4545.5218-2.2445 3.8883-1.5691 3.8742-4.186.5095-4.3797.002-9.3423-.0247-13.986-.057-.9603-.3295-1.9198-.9208-2.5576-.7519-.636-1.872-.7372-2.941-.8372-.3707.6413.2747 1.279.3847 1.9186 2.538 5.4839 1.6744 13.2306-1.2343 18.2644-2.9106 4.6079-8.3415 7.3084-14.4314 6.4335-4.4867-.2954-8.8793-3.2076-10.5037-7.0948-3.1829-6.0146-2.964-14.878.7407-20.5584 2.0645-3.1082 5.198-6.1146 9.0917-6.5635 5.8687-.8337 10.8437 1.2214 14.3366 5.3669 1.0173.2594.529-1.2844 1.1667-1.7156 1.8027-2.3052 5.0568-2.6988 7.7196-3.7266 1.865-.6519 3.8884-1.5156 5.9746-.9937zM219.4885 0c-.6396.0035-1.172.2206-1.6527.4895-.7966.5919-.7895 1.9274-.7307 2.8876.23 3.0405 4.0684 1.8456 4.9362 4.3496.7642 2.8787.7266 6.0828 1.0113 9.1769-.0494.6948.0624 1.4944-.3612 2.0304-.3742.0553-.643-.3701-.9125-.5825-4.2443-5.1015-7.269-11.3838-10.8778-16.916-.812-1.9703-3.4212-1.0472-5.185-1.092-3.0918.499-7.0002-1.4013-8.9076 1.3845-.5289.6442-.4165 1.8168-.1976 2.6163.4365 1.9203 2.891 1.4267 3.5412 3.1312.9849 4.5313 1.0131 9.6558.9866 14.462.4542 4.6949.0536 9.5022-.8837 13.8842-.4683 2.1927-4.0466 1.7315-3.6053 4.5049.0059.8549.2765 1.5991.866 2.1304 1.8204.7907 4.2196.2441 6.2488.3936 3.0417-.0183 6.1929.1247 9.344.053.6907-.3772 1.7044-.5431 1.7527-1.5033 1.2555-4.492-4.6614-3.1776-5.7999-6.2146-.6625-3.68-.846-7.9497-.4936-11.7415.0518-.4277.4795-.3242.693-.1636 3.7584 3.8754 5.9211 8.6686 9.0952 12.974 2.0427 2.713 4.0378 6.1182 6.3976 8.2398 0 .0535-.053.002-.053.002.6949.2618 2.084.2547 2.9888-.0177 2.1322-.8654 2.3852-3.217 2.7482-5.301l-.2524-26.157c-.0642-1.8685.1406-3.6835.5571-5.395.4701-1.8168 2.8711-1.938 3.5036-3.543.3153-.9102.47-1.7633.0394-2.6699-.3795-.7978-.916-1.169-1.7156-1.3255-4.376.3989-8.7562.1565-13.0811-.0871M56.177 28.6953c-1.2808.326-2.1857 1.1273-2.6628 2.3051-.2106 1.2808-.3118 2.937.812 3.7866.4812.2124 1.0672.21 1.4949-.1106 1.4367-1.2855 1.1625-3.5265 1.106-5.3951-.0558-.3742-.3759-.586-.75-.586m85.0615-11.8733c-.5348.1083-.8.429-1.1207.8566-.689 1.122-1.1132 2.8323-.5754 4.0596 1.3896.4218 2.8822-.3295 4.163-.759.586-.2159.7978-.7501.689-1.3379-.5913-1.3855-1.3961-2.9317-3.1559-2.8193m5.7458-6.3164c1.6567.4754 2.8893 1.808 4.3855 2.604.4795-.5895.317-1.5497.8478-2.084.7466-.6965 1.7067-.7 2.668-.8083 4.3767-.0659 8.7546-.0253 13.1865-.0912.7467.1053 1.2809.4242 1.6568 1.0637.3224 1.1202.6996 2.5593-.2565 3.5248-1.0673.4824-1.4909 1.4979-1.5962 2.567.4348 2.1338 1.1326 4.1589 2.3657 5.8121.269.3183.7478.3166 1.0685.0494 1.382-1.9785 2.5493-4.4902 2.5416-7.1065-.5895-1.0673-2.0857-1.6497-1.931-3.1976.1054-.7478.3178-1.4962.8502-1.9786l.9602-.483c3.1488.1511 6.9371-.6055 10.1418.1853.6413.3188 1.0172.9584 1.126 1.7044.2172.8019.1119 1.7085-.2606 2.4051-.6371.8013-1.6508 1.0702-2.3439 1.8203-6.1629 10.1066-9.0128 22.0193-15.2845 32.0187-1.9127 2.8358-4.9515 4.8197-8.3126 5.4168-1.9204.2189-3.8972-.0965-5.4492-1.053-1.282-.958-1.715-2.6111-1.4515-4.2144.2089-1.4408 1.1114-2.9923 2.4457-3.6889 2.6629-2.0356 5.3451 2.601 7.8444-.5018 2.1321-1.6085 1.2167-4.649.6772-6.7295-2.1516-5.705-3.9313-11.5726-6.0276-17.333-.6983-1.6527-1.345-3.413-2.9482-4.3696-.1617-.053-.427.0559-.3206.3212 1.0208 2.401 2.2033 5.012 1.5691 7.7908-.6895 1.2826-2.2904 1.3414-3.5177 1.8238l-10.723 2.807c-.3725.1606-.639.4277-.6908.8549.007 2.1892 1.881 4.213 3.6977 5.0091 3.2083 1.4856 6.3518-.2318 8.7492-2.0539.479-.2136 1.1738-.3777 1.6545.0483 1.3396 1.5979.5989 4.1625-.249 5.821-3.883 5.2421-11.193 6.863-17.4966 5.0656-4.5408-1.1614-7.0094-5.691-7.7702-10.067-1.302-8.1104.4866-17.1908 6.9348-21.6398 2.6628-1.7692 6.4512-2.7935 9.764-1.682zm-35.4475-.7554c-4.2696.866-8.8634-.4025-12.864.6236-.6925.3224-1.1185 1.1243-1.2238 1.8186-.103.962.0053 1.922.5418 2.668 1.4444.9032 2.6752 2.0734 3.2665 3.8355 2.4187 5.6498 4.6756 11.2496 7.2013 16.7947 1.2343 2.6664 2.045 5.7052 3.919 7.9973.6965.852 1.7114.955 2.7787.8978 1.922-.2188 2.9317-1.6079 3.8348-3.2129 3.7671-8.1244 6.0916-16.886 10.5536-24.7461.9584-1.1244 2.6646-1.8227 2.82-3.5307-.3207-.5324-.2178-1.2273-.5914-1.7597-.376-.586-1.0172-.7984-1.712-.9566l-8.5945-.2954-1.6009.3236c-1.1743.483-1.5426 1.8186-1.5408 2.9947.057 1.1737.9672 1.6508 1.6102 2.504.6996 2.2927-.5754 4.3248-1.0507 6.4087-.3171.7484-.476 1.762-1.329 2.0863-.855-.319-1.0709-1.172-1.4998-1.9721-.7536-1.9733-1.6656-3.8384-1.8327-6.0811.2636-1.0132 1.5439-1.2308 1.8092-2.1392.3171-1.2826.0465-2.6164-.703-3.5748-.9108-.9584-2.4587-.5807-3.7925-.6842M82.0134 9.353c-3.413 1.2361-6.9877 1.7815-10.0247 3.8172-.7996.8566-1.4356 2.0321-1.0579 3.313.5913 1.7067 2.6717 1.3808 3.796 2.2856.696.6907.8578 1.6527.9684 2.6129-.0924 4.9108.882 10.1406-.226 14.948-.8495 1.4978-2.611 1.236-3.4093 2.6786-.4236.8549-.3136 1.9774.0623 2.8288.3207.586.8572 1.0649 1.5515 1.1702 4.216.043 8.648-.1836 12.8123.1247 2.0268-.326 5.0214.8407 6.457-.8713.5324-.536.6354-1.498.6336-2.2975-.2724-2.2428-2.8352-2.2869-4.3866-3.2453-.962-.7966-1.1797-1.8115-1.4503-2.9317-.2777-4.1095-.3418-8.3273-.3542-12.4363.1583-.4277.746-.483 1.1738-.4313 2.1927 1.2756 2.255 4.585 5.2974 4.7897 1.2826-.0035 2.4545-.7537 3.0923-1.7174 1.6491-2.2992 1.852-5.8245.8301-8.5427-.8607-2.2404-1.8826-5.1191-4.5531-5.6992-2.67-.3671-4.2643 2.627-5.8617 3.913l-.5324.1083c-.7519-1.172-.4365-2.8817-1.1867-4.0001-.8037-.9049-2.5116-.7949-3.6318-.4172M38.0532.08c1.1203.05 2.508-.0606 3.1529.8978.6963 1.1202.6997 2.6146.0087 3.6836-.691 1.0702-2.3458 1.1273-2.5542 2.517-.6146 9.2375-.3225 18.6309.397 27.6513.0555.8014.3244 1.4944 1.126 1.865.4808.1583.9101.479 1.4961.4772l.2654-.4807c-.3295-3.577.5148-7.1018 2.964-9.4581 2.9818-2.7846 7.2513-3.1688 10.985-4.462 1.9715-1.126.8954-3.686.8901-5.661-.2153-.853-.8584-1.5997-1.6597-1.9162-1.762-.4224-2.8786 1.1825-3.6767 2.358-1.3286 1.9786-2.6022 4.5991-5.3792 4.6597-.96.0035-1.9236-.529-2.351-1.3285-.6484-2.2927-1.352-5.7604.8317-7.5295 4.5279-3.9096 10.7176-4.8344 16.911-4.2643 2.4046.3136 4.2214 1.5908 5.7228 3.6141 1.6638 3.2524 1.2485 7.5237 1.2061 11.368-.3118 2.777-.2512 5.8722-.0306 8.6474.2153.6948.6448 1.4408 1.3932 1.6514.6948.1048 1.708-.1123 2.1369.5825.5918 1.332.1676 2.9352-.3613 4.1107-1.279 1.0708-2.3422 2.3016-4.1037 2.574-2.2927 1.1279-5.278 2.417-7.8449.9831-1.1237-.6377-1.4461-1.8115-2.4098-2.5028-1.332.3242-2.0769 1.5538-3.3577 2.038-2.7179 1.395-6.8806 1.6745-9.3422-.347-.6946-.426-.8032-1.1191-1.6582-1.1173-.319.8019-1.0634 1.6585-2.0235 1.9274-4.1628.4918-8.3823-.349-12.7588.1423-1.6013.1124-3.8938.652-4.9126-.9472-.5913-1.172-.3829-2.8287.3617-3.8977 1.5993-.6978 2.2888-2.5152 2.2835-4.2767.0462-2.777.5183-5.9275-.0767-8.701-.269-.5342-1.0706-.6377-1.6566-.636-2.0821-.1011-4.5385-.3076-6.4602.1783-.6378.6413-.636 1.6033-.579 2.5099.1157 3.0958-.3029 6.0328.399 8.968.9655 1.5445 3.7939 1.6974 3.3203 4.1008-.05 1.0684-.5808 2.1368-1.5408 2.6199-1.9737.486-4.0577-.1495-5.9243.123l.4256-.0554v-.0517c-3.8973-.1495-7.6858.1817-11.3694.0853-.8016-.1583-1.498-.9043-1.8204-1.5438-.1087-.9602-.0588-1.9221.367-2.7235.8496-1.3379 2.7714-1.6085 2.9798-3.3188.7323-5.3933.2887-11.3173.326-16.923l-.83-10.7284C3.1024 5.9958 1.5546 5.787.6445 4.7756.2686 3.9219-.2142 2.9623.1029 1.895.208 1.2002.794.825 1.3265.5024 2.2331.1794 3.4604.1765 4.4757.333 9.0142.4277 13.177.31 17.5017.1906c.7998-.0015 1.5478.2636 2.084.9014.6964.9048.8069 2.2939.276 3.3094-.5306 1.3361-2.5043 1.4479-2.8212 2.891-.367 2.6164-.4668 5.2328-.2995 7.848.2691.6395.5916 1.439 1.4465 1.5443 1.2805.0495 2.67.046 3.8437-.0111.9067-.0553 2.403.3135 3.0941-.4895.6359-1.9774.3633-4.1649.4096-6.3535.2065-2.2963-.8122-3.9472-2.5757-5.011-.8032-.9577-.6483-2.8263-.1174-3.897.4257-.5343 1.065-.8567 1.8114-.8585 4.3781.2548 9.184.1871 13.4.016"/><path d="M.7067 46.0547v6.4069h148.4082v-6.407zm170.8303 0v6.4069H400v-6.407z"/></g></svg>