<svg version="1.1" id="Layer_1" xmlns="http://www.w3.org/2000/svg" x="0" y="0" viewBox="0 0 135.1 45" xml:space="preserve" enable-background="new 0 0 135.1 45"><style>.st1{fill:#3455a5}</style><path d="M15 7.3v14.4H8.3V7.3c0-.4-.3-.7-.7-.7-.3.1-.6.4-.6.7v14.4H.3V7.3C.3 3.3 3.6 0 7.7 0S15 3.3 15 7.3z" style="fill:#3455a5;enable-background:new"/><path class="st1" d="M134 20.5c.8.8-.4 2.2-1.3 1.3l-.1-.1c-.6-.5-1.6-.6-2.4-.6-2 0-2.9.8-2.9 1.8 0 1.1 1.2 1.5 2.2 1.9 2.4.7 5.7 1.1 5.7 4.5 0 3-2.6 4.3-5.2 4.3-1.6 0-3.5-.5-4.7-1.4-1-.7.1-2.2 1.1-1.5.8.6 2.3 1 3.6 1 2.1 0 3.3-1 3.3-2.5 0-1.3-1.1-1.7-2.2-2.1-2.3-.7-5.7-1-5.7-4.2 0-2.6 2.5-3.7 4.7-3.7 1.1.1 3 .3 3.9 1.3zM123.8 32c.2.5-.1 1.3-.9 1.3h-8c-.5 0-.9-.4-.9-.9V20.5c0-.5.4-.9.9-.9h8c1 0 1.2 1.2.6 1.7-.1.1-.3.2-.6.2h-7.1V25h5.1c1.2 0 1.2 1.8 0 1.8h-5.1v4.5h7.1c.5.1.8.4.9.7zM111.7 20.5v11.9c0 1.2-1.9 1.2-1.9 0V20.5c.1-1.2 1.9-1.2 1.9 0zM107.4 19.5c1.2 0 1.2 1.9 0 1.9h-3.1v10.9c0 1.2-1.9 1.2-1.9 0V21.4h-3.1c-1.2 0-1.2-1.9 0-1.9h8.1zM97.3 20.5v11.9c0 1.2-1.9 1.2-1.9 0V20.5c0-1.2 1.9-1.2 1.9 0zM92.6 20.5c.8.8-.4 2.2-1.3 1.3l-.1-.1c-.6-.5-1.6-.6-2.4-.6-2 0-2.9.8-2.9 1.8 0 1.1 1.2 1.5 2.2 1.9 2.4.7 5.7 1.1 5.7 4.5 0 3-2.6 4.3-5.2 4.3-1.6 0-3.5-.5-4.7-1.4-1-.7.1-2.2 1.1-1.5.8.6 2.3 1 3.6 1 2.1 0 3.3-1 3.3-2.5 0-1.3-1.1-1.7-2.2-2.1-2.3-.7-5.7-1-5.7-4.2 0-2.6 2.5-3.7 4.7-3.7 1.1.1 3 .3 3.9 1.3zM69.7 19.5c.6 0 .9.5.9.9 0 .5-.3.9-.9.9h-7.1V25h5.1c1.2 0 1.2 1.8 0 1.8h-5.1v4.5h7.1c.6 0 .9.5.9.9 0 .5-.3.9-.9.9h-8c-.5 0-.9-.4-.9-.9V20.5c0-.5.4-.9.9-.9h8v-.1zM66.1 3.2V15c0 .9-1.2 1.3-1.7.5l-6.3-9.3V15c0 1.2-1.9 1.2-1.9 0V3.2c0-.9 1.2-1.3 1.7-.5l6.3 9.4V3.2c0-1.3 1.9-1.3 1.9 0zM66 42.2c.1.3 0 .5-.2.5-.2.1-.4 0-.5-.2l-.5-1.1H62l-.5 1.1c-.2.5-1 .2-.8-.3l2.2-5.3c.1-.3.6-.4.8 0l2.3 5.3zm-1.6-1.7l-1-2.4-1 2.4h2zM59.8 37v5.3c0 .5-.8.5-.8 0V37c-.1-.5.8-.5.8 0zM57.7 20.2c.5-1.5 2.1-.3 1.8.6l-4 11.8c-.3.9-1.5.9-1.7 0l-4-11.8c-.4-1.2 1.4-1.8 1.8-.6l3.1 9.2 3-9.2zM57.5 41.9c.6 0 .6.8 0 .8h-2.7c-.2 0-.4-.2-.4-.4V37c0-.5.8-.5.8 0v4.9h2.3zM53.8 2.2c.6 0 .9.5.9.9 0 .5-.3.9-.9.9h-7.1v3.6h5.1c1.2 0 1.2 1.9 0 1.9h-5.1V14h7.1c.6 0 .9.5.9.9 0 .5-.3.9-.9.9h-8c-.5 0-.9-.4-.9-.9V3.2c0-.5.4-.9.9-.9h8v-.1zM53.6 42.2c.1.3 0 .5-.2.5-.2.1-.4 0-.5-.2l-.5-1.1h-2.7l-.5 1.1c-.2.5-1 .2-.8-.3l2.2-5.3c.1-.3.6-.4.8 0l2.2 5.3zM52 40.5l-1-2.4-1 2.4h2zM47.8 20.5v11.9c0 1.2-1.9 1.2-1.9 0V20.5c0-1.2 1.9-1.2 1.9 0zM43.6 20.5v11.9c0 .9-1.2 1.3-1.7.5l-6.3-9.3v8.8c0 1.2-1.9 1.2-1.9 0V20.5c0-.9 1.2-1.3 1.7-.5l6.3 9.3v-8.8c.1-1.2 1.9-1.2 1.9 0zM43.4 6.3c0 2.3-1.8 4.1-4.1 4.1h-4V15c0 1.2-1.9 1.2-1.9 0V3.2c0-.5.4-.9.9-.9h4.9c2.4-.1 4.2 1.7 4.2 4zm-1.8 0c-.1-1.2-.9-2.2-2.2-2.2h-4v4.4h4c1.2 0 2.1-1 2.2-2.2zM41.9 36.6c.6 0 .6.8 0 .8h-1.4v4.9c0 .5-.8.5-.8 0v-4.9h-1.4c-.6 0-.6-.8 0-.8h3.6zM36.9 37.1c.3.4-.2 1-.6.6-.3-.2-.7-.3-1.1-.3-.9 0-1.3.4-1.3.8 0 .5.5.7 1 .8 1.1.3 2.5.5 2.5 2 0 1.3-1.2 1.9-2.3 1.9-.7 0-1.6-.2-2.1-.6-.4-.3 0-1 .5-.7.4.3 1 .5 1.6.5.9 0 1.5-.5 1.5-1.1s-.5-.8-1-.9c-1-.3-2.5-.5-2.5-1.9 0-1.2 1.1-1.6 2.1-1.6.4-.1 1.3 0 1.7.5zM32.1 37v3.7c0 1.2-1 2.2-2.3 2.2-1.2 0-2.2-1-2.2-2.2V37c0-.5.8-.5.8 0v3.7c0 .8.6 1.4 1.4 1.4s1.4-.6 1.4-1.4V37c0-.5.9-.5.9 0zM31.8 20.5v8.2c0 2.7-2.2 4.9-4.9 4.9S22 31.4 22 28.7v-8.2c0-1.2 1.8-1.2 1.8 0v8.2c0 1.7 1.4 3.1 3.1 3.1s3.1-1.4 3.1-3.1v-8.2c-.1-1.2 1.8-1.2 1.8 0zM31.8 6.6v5c0 2.7-2.2 4.5-4.9 4.5S22 14.3 22 11.6v-5c0-2.5 1.8-4.5 4.9-4.5 3 0 4.9 2 4.9 4.5zm-1.9 5c.1-1.5.1-3.2 0-5-.1-1.7-1.4-2.6-3.1-2.6-2 0-3 1.1-3.1 2.6s-.1 3.2 0 5c.1 1.7 1.4 2.6 3.1 2.6 2 0 3.1-1.1 3.1-2.6zM27 42.2c.1.3 0 .5-.2.5-.2.1-.4 0-.5-.2l-.5-1.1h-2.7l-.5 1.1c-.2.5-1 .2-.8-.3l2.2-5.3c.1-.3.6-.4.8 0l2.2 5.3zm-1.6-1.7l-1-2.4-1 2.4h2zM15 23.2v14.4c0 4.1-3.3 7.3-7.3 7.3-4.1 0-7.3-3.3-7.3-7.3V23.2H7v14.4c0 .4.3.7.7.7s.7-.3.7-.7V23.2H15zM82 31.8l-3-4.2c1.8-.4 3.2-2.1 3.2-4 0-2.2-1.8-4.1-4.1-4.1h-4.9c-.5 0-.9.4-.9.9v11.9c0 1.2 1.9 1.2 1.9 0v-4.6h2.6l3.7 5.2c.7 1 2.2-.1 1.5-1.1zm-7.9-6v-4.4h4c1.3 0 2.1 1 2.2 2.2-.1 1.2-.9 2.2-2.2 2.2h-4zM47.5 42.1l-1.4-1.9c.8-.2 1.5-.9 1.5-1.8 0-1-.8-1.8-1.9-1.8h-2.2c-.2 0-.4.2-.4.4v5.3c0 .5.8.5.8 0v-2.1h1.2l1.7 2.3c.3.5 1 0 .7-.4zm-3.6-2.7v-2h1.8c.6 0 1 .5 1 1s-.4 1-1 1h-1.8z"/></svg>