<svg version="1.2" xmlns="http://www.w3.org/2000/svg" viewBox="0 0 1596 462" width="1596" height="462">
	<title>qbe insurance-svg</title>
	<style>
		.s0 { fill: #282828 } 
		.s1 { fill: #00aff4 } 
	</style>
	<g id="Layer">
		<path id="Layer" fill-rule="evenodd" class="s0" d="m925.4 425.5q-6.8 4.4-13.8 8.4-7.1 3.9-14.4 7.3-7.4 3.4-15 6.2-7.5 2.9-15.3 5.1-7.8 2.4-15.8 4.1-8 1.8-16.1 3-8.1 1.1-16.2 1.7-8.2 0.6-16.4 0.5c-25.8 0-50.6-4.3-74.5-12.4q-8.8-3.2-17.4-7-8.6-3.9-16.8-8.5-8.2-4.6-16-9.8-7.8-5.3-15.1-11.2-10.2-8.1-19.3-17.3-9.1-9.2-17.1-19.5-8-10.2-14.7-21.3-6.8-11.1-12.2-22.9c-14.7-31.6-22-66-22-103.3 0-30.9 5.8-60.3 17.7-87.9 11.7-27.6 28.9-52.9 51.5-75.8q7.7-7.6 16.1-14.5 8.3-6.9 17.3-12.9 9-6 18.6-11.2 9.5-5.1 19.5-9.3c26.2-10.9 54.4-16.2 84.4-16.2 31.1 0 59.7 5.3 86.1 16.2 26.4 11 50.5 27.1 72.4 48.7q8.3 8 15.7 16.9 7.4 8.9 13.8 18.5 6.4 9.6 11.9 19.7 5.4 10.2 9.7 20.9c11.5 28.2 17.2 59 17.2 92.1 0 29.1-4.6 55.8-13.8 80.5-9 24.4-22.9 47.5-41.5 68.7 7.9 3.8 16 6.5 24.2 8.2q3.3 0.7 6.7 1.2 3.3 0.5 6.7 0.9 3.3 0.3 6.7 0.5 3.4 0.1 6.7 0.1h8.2v62h-5.7q-6.4 0-12.7-0.5-6.3-0.5-12.6-1.5-6.3-0.9-12.5-2.3-6.2-1.4-12.3-3.2-6.8-2.1-13.5-4.6-6.6-2.4-13.1-5.3-6.6-2.9-12.9-6.2-6.3-3.2-12.4-6.8zm-8.6-77.2c16-18.3 27.6-36.7 35-55.8 7.3-18.8 10.9-40.5 10.9-64.7q0-7.5-0.7-15-0.7-7.5-2.1-14.9-1.4-7.4-3.5-14.7-2.1-7.2-4.8-14.2-2.8-7.1-6.3-13.9-3.4-6.7-7.5-13.1-4-6.5-8.7-12.5-4.6-6-9.8-11.5c-16.6-18-34.5-31.4-53.6-40-19.1-8.6-40.4-13-63.8-13q-31.3-0.1-59.6 11.9-7 3-13.7 6.7-6.7 3.7-13 8-6.3 4.3-12.2 9.3-5.8 4.9-11.1 10.4-5.9 5.9-11.1 12.4-5.2 6.5-9.8 13.5-4.5 7-8.4 14.4-3.8 7.4-7 15.1-3.1 7.7-5.5 15.7-2.3 8-3.9 16.2-1.6 8.1-2.4 16.4-0.8 8.3-0.8 16.6c0 6.9 0.6 14.4 1.7 22.2 1.1 7.7 2.9 15.6 5 24.1q3.8-1.9 7.7-3.5 4-1.7 8-3.1 4-1.3 8.1-2.4 4.2-1.1 8.3-2c11.8-2.4 25.4-3.4 40.8-3.4 32.9 0 66 7.2 99.3 21.8 33.3 14.7 64.8 35.6 94.5 63zm-48.5 35.9c-22.7-20.7-47-36.7-73-47.5q-39-16.4-79.4-16.4c-7.7 0-15 0.6-22.2 1.7q-2.7 0.4-5.4 1-2.6 0.5-5.3 1.1-2.6 0.7-5.3 1.4-2.6 0.7-5.2 1.6c15.9 22.6 35.2 40.2 58.3 52.6q8.6 4.6 17.6 8.1 9.1 3.5 18.6 5.9 9.4 2.3 19.1 3.5 9.6 1.2 19.4 1.1c9.7 0 19.7-1.1 30-3.5 10.3-2.2 21.2-5.9 32.8-10.6zm297.6-376.3c47.7 0 84 10.4 108.7 31.3 24.9 20.9 37.2 51.5 37.2 91.3 0 18.5-4 34.8-12.2 49.1-8.1 14.1-19.9 25.9-35.5 35 21.9 6.4 39.2 19.1 51.9 37.9 12.6 18.7 19 40.8 19 66.8q0.1 7.6-0.6 15.1-0.8 7.5-2.2 14.9-1.5 7.4-3.7 14.7-2.3 7.2-5.2 14.2c-7.8 18.3-18.4 33.5-32.2 45.5q-5 4.2-10.4 8-5.4 3.7-11.2 6.8-5.8 3.1-11.8 5.6-6.1 2.5-12.4 4.4c-17.2 4.8-41.3 7.2-72.3 7.2h-103.2v-447.8c0 0 96.1 0 96.1 0zm-32.6 387.2h51c29.8 0 51.9-5.5 65.9-16.8 14.1-11.1 21.2-28.3 21.2-51.7 0-25.5-7.3-44.8-22.1-57.8-14.7-13.1-36.3-19.8-65-19.8h-51zm0.6-199.6h20.6c33.5 0 57.3-5.2 71.6-15.2 14.2-10.3 21.3-27 21.3-50.5 0-20.6-6.4-36-19.4-46.1-12.9-10-32.7-15-59.3-15h-34.8zm461.2 260.1h-232v-447.8h232v59.9h-167.2v133.8h167.2v58h-167.2v134.3h167.2z"/>
		<path id="Layer" fill-rule="evenodd" class="s1" d="m375.2 335.9q4.8 0 9.4-1 4.7-0.9 9.1-2.7 4.4-1.9 8.4-4.5 3.9-2.7 7.3-6c8.8-8.9 14.2-21 14.2-34.5q0-3.2-0.4-6.5-0.4-3.2-1.3-6.4-0.9-3.1-2.2-6.1-1.3-3-3-5.8l-99.6-173.4c-1.2-8-3.3-16-6.2-23.6-2.8-7.7-6.5-15-10.9-21.9-4.4-6.8-9.5-13.2-15.3-19.1-5.7-5.8-12.1-10.9-18.9-15.4 10-1.9 20.4-2.3 30.5-1 10.2 1.2 20.1 4 29.5 8.3 9.3 4.3 17.9 10 25.4 16.9 7.6 6.9 14.1 14.9 19.2 23.8l102 177c6.5 11.3 10.7 23.8 12.5 36.8 1.7 12.9 0.8 26.1-2.6 38.7-3.4 12.7-9.2 24.5-17.1 34.9-8 10.4-17.9 19.1-29.2 25.6-11.1 6.5-23.4 10.7-36.1 12.4-12.7 1.8-25.6 1.1-38-2.1-12.5-3.1-24.1-8.7-34.5-16.3-10.3-7.6-19-17.2-25.7-28.1zm11.7-77.5c3.8 1.5 7.2 3.9 10.1 6.8 2.9 2.9 5.2 6.3 6.7 10.1 1.6 3.8 2.4 7.8 2.4 11.9 0 4.1-0.8 8.2-2.4 12-1.5 3.7-3.8 7.2-6.7 10.1-2.9 2.9-6.3 5.1-10.1 6.7-3.8 1.6-7.9 2.4-12 2.4h-160.3l35.9-62.5h124.4c4.1 0.1 8.2 0.9 12 2.5zm-134.7-168.2q-2.4-4.1-5.5-7.7-3.1-3.6-6.9-6.5-3.8-2.8-8.1-4.9-4.3-2.1-8.9-3.3-4.6-1.3-9.4-1.6-4.8-0.3-9.5 0.3-4.8 0.6-9.3 2.2-4.6 1.5-8.7 3.9c-7.8 4.7-14 11-18.2 18.3l-99.7 173.3c-6.4 5.1-12.2 10.9-17.4 17.2-5.2 6.3-9.7 13.2-13.5 20.4-3.7 7.3-6.7 14.9-8.9 22.8-2.1 7.9-3.5 16-3.9 24.1-6.7-7.7-12.2-16.5-16.2-26-4-9.4-6.5-19.4-7.5-29.6-0.9-10.2-0.3-20.5 1.9-30.6 2.2-10 5.9-19.6 11-28.5l102.1-177c6.5-11.3 15.1-21.3 25.4-29.3 10.4-7.9 22.2-13.8 34.8-17.2 12.6-3.4 25.8-4.2 38.7-2.5 13 1.7 25.5 6 36.8 12.5 46.6 27 63.2 86.3 37.6 133.5 0 0-36.7-63.8-36.7-63.8zm-72.8 28.8c-0.6-4.1-0.3-8.2 0.7-12.2 1.1-3.9 2.9-7.6 5.4-10.8 2.5-3.3 5.6-6 9.1-8.1 3.6-2 7.5-3.4 11.5-3.9 4.1-0.6 8.2-0.3 12.2 0.7 3.9 1.1 7.7 2.9 10.9 5.4 3.2 2.5 6 5.6 8 9.2l80.2 139.1h-71.9l-62.2-108c-2.1-3.5-3.4-7.4-3.9-11.4zm-78 200.9q-2.4 4.1-3.9 8.6-1.5 4.6-2.1 9.3-0.6 4.8-0.3 9.5 0.3 4.8 1.5 9.4 1.3 4.6 3.4 8.9 2.1 4.3 5.1 8.1 2.9 3.8 6.5 7 3.6 3.1 7.7 5.5c7.9 4.5 16.5 6.7 25 6.5h199.5c7.6 3 15.4 5.2 23.5 6.5 8.1 1.4 16.3 1.9 24.4 1.5 8.2-0.3 16.3-1.5 24.2-3.6 7.9-2 15.6-4.9 22.9-8.6-13.6 38.8-50.5 66.8-93.8 66.8h-204.1c-54.8 0-99.3-44.7-99.3-99.7 0-54 43-97.9 96.6-99.6zm61.2 49c-3.3 2.5-7 4.3-10.9 5.3-4 1.1-8.1 1.4-12.1 0.8-4.1-0.5-8-1.8-11.5-3.8-3.5-2.1-6.7-4.8-9.2-8.1-2.4-3.2-4.3-6.9-5.3-10.9-1.1-4-1.4-8.1-0.8-12.2 0.5-4 1.8-7.9 3.9-11.5l80.2-139.2 36 62.4-62.3 108.1c-2.1 3.5-4.8 6.6-8 9.1z"/>
	</g>
</svg>