<svg xmlns="http://www.w3.org/2000/svg" width="1200" height="800" viewBox="-9.92187 -6.3165 85.98954 37.899"><path d="M59.5504 18.1083H6.5796V7.232h52.9708z" fill="#fff"/><path d="M21.1675 10.541c-.7762 0-1.2753.5669-1.2753 1.4531v.1167h2.5283v-.1167c0-.8862-.4901-1.4532-1.253-1.4532m-5.9228-.0675c-.407 0-.8772.0313-1.0955.0764l-.0564.0133v4.0493l.0607.009c.3354.0498.8345.0811 1.0912.0811 1.1315 0 1.2776-.9 1.2776-1.6828v-.8682c0-.7828-.146-1.678-1.2776-1.678" fill="#00904a"/><path d="M28.6315 10.496c0 .0854-.0835.0987-.1551.0987-.4436-.0536-.7155-.0764-1.4627-.0764-.4317 0-1.1515.1983-1.1515 1.5433v1.048c0 1.3455.7198 1.5476 1.1515 1.5476.7472 0 1.019-.027 1.4536-.0806h.0337c.047 0 .1305.0133.1305.0987v.7334c0 .1443-.0204.1846-.1822.225-.131.0317-.6167.1442-1.4356.1442-1.5652 0-2.4988-.9992-2.4988-2.6683v-1.048c0-1.669.9336-2.6658 2.4988-2.6658.8189 0 1.3047.1105 1.4375.1442.1599.038.1803.0807.1803.2249zm-4.852 2.3214c0 .1845-.0769.2111-.158.2111H19.881v.104c0 .454.137 1.5024 1.4214 1.5024.7984 0 1.5703-.0673 2.0718-.1124h.0337c.0403 0 .1328.009.1328.0944v.7468c0 .1532-.018.1978-.1774.2249-.7022.1262-1.1453.1893-2.1734.1893-.443 0-2.6563-.1353-2.6563-2.758v-.8326c0-1.7501.985-2.7915 2.634-2.7915 1.6103 0 2.6118 1.0689 2.6118 2.7915zm-5.912.2026c0 1.8038-.9066 2.7579-2.6226 2.7579-.3126 0-.7021-.027-1.0712-.0812l-.0807-.009v2.0742c0 .0854-.0697.157-.1528.157h-1.037c-.0855 0-.1552-.0716-.1552-.157V9.9243c0-.128.0133-.1755.252-.2382.7063-.1821 1.5451-.2903 2.245-.2903 1.716 0 2.6226.9517 2.6226 2.7555zm-6.2985 1.8849c-.4004.4906-1.1315.891-2.4386.891h-.0019c-.7628 0-1.3744-.0631-1.984-.2026-.0764-.0138-.1713-.0678-.1737-.1755v-.8099c0-.0987.0878-.1618.1803-.1618.4564.0541 1.5993.1125 1.9997.1125.9627-.0043 1.354-.315 1.3564-1.0666 0-.4815-.2476-.7154-.9806-1.1471l-1.4869-.891c-.9246-.5442-1.3047-1.1334-1.3047-2.0154 0-.6903.234-1.217.6975-1.5656.463-.3506 1.1538-.5243 2.067-.5243.7198 0 1.7611.1106 2.1525.2026.0722.0138.1623.0631.1623.1642v.8326c0 .0854-.0607.1527-.1575.1527-.8369-.0763-1.5637-.1148-2.2246-.1148-.8279.0024-1.233.288-1.233.8526 0 .4028.2049.6343.9493 1.0485l1.3521.751c1.0888.603 1.541 1.2644 1.5386 2.254 0 .3464-.0698.9223-.4702 1.4129m19.6719 4.1119c-.0071-.0043-.0133-.0133-.018-.0176a27.0627 27.0627 0 00-.1799-.212c-.0095-.0133-.018-.0223-.027-.0356-.0588-.0679-.1148-.1395-.1713-.2069-.009-.0137-.0175-.027-.027-.036-.056-.0721-.11-.1442-.1642-.2159a.0685.0685 0 01-.018-.0228 11.235 11.235 0 01-.6523-.9759v-.0047c-.0404-.0674-.0783-.1305-.1168-.2026-.0132-.0223-.027-.0446-.0408-.0674-.0313-.063-.065-.1214-.0967-.1845-.0157-.0313-.0337-.0631-.0494-.0944a3.37 3.37 0 01-.0854-.1708c-.018-.036-.0337-.0721-.0517-.1082a2.7066 2.7066 0 01-.0764-.1665 2.3694 2.3694 0 01-.0517-.1125 2.4374 2.4374 0 01-.0697-.1665c-.0162-.0403-.0342-.0811-.0498-.121-.0204-.054-.0427-.1039-.0627-.158-.0156-.045-.0318-.0896-.0474-.1347-.018-.0493-.038-.0991-.0541-.1528-.02-.0588-.0403-.1171-.0584-.176-.0223-.072-.045-.1437-.0654-.2201a18.3284 18.3284 0 01-.0517-.1708c-.011-.0455-.02-.0901-.0314-.1352-.0132-.0541-.0294-.1082-.0427-.1665a6.1418 6.1418 0 01-.027-.1305c-.0138-.0584-.0247-.112-.036-.166-.009-.0451-.0157-.0902-.0247-.1353-.009-.0588-.0204-.1124-.029-.1712a4.5133 4.5133 0 01-.0204-.13c-.007-.0589-.0156-.1172-.0227-.1756-.0043-.0403-.0086-.0859-.0157-.1304-.0043-.0589-.0109-.1215-.0156-.1799-.0043-.0408-.0067-.081-.0114-.1219-.0043-.0716-.0067-.1395-.011-.2064-.0023-.036-.0023-.0678-.0047-.1039a7.4776 7.4776 0 01-.0066-.306c0-.1077.0023-.2068.0066-.3103.0024-.036.0024-.0678.0048-.1034.0042-.0678.0066-.1352.0109-.2026.0047-.0403.007-.081.0114-.1214.0047-.0631.0113-.1262.0156-.1846a1.997 1.997 0 00.0157-.1304c.007-.0584.0156-.1172.0227-.1756.0067-.0403.0133-.0854.0204-.1304.0086-.0537.02-.1125.029-.1708.009-.0451.0156-.0854.0246-.1305a4.3766 4.3766 0 01.0361-.1708c.009-.0408.018-.0859.027-.1305.0133-.054.027-.1124.0427-.1712.0114-.0404.0204-.0807.0314-.1258.018-.0673.0384-.1304.0564-.1983.0204-.0669.0427-.1347.0631-.2068.018-.0541.036-.1077.0541-.1642.018-.0493.036-.0991.054-.148.0157-.0456.0314-.0925.047-.1376.0205-.0517.0428-.1034.0627-.1551a3.4555 3.4555 0 01.0498-.1258c.0223-.054.045-.1058.0674-.1598.018-.0408.036-.0788.0517-.1172.027-.056.0517-.1101.0768-.1666.0176-.036.0356-.0697.0517-.1058.029-.0583.056-.1143.0854-.1731.0157-.029.0337-.0607.0494-.092a6.7719 6.7719 0 01.0968-.1822c.0114-.0204.0246-.0404.036-.0631a10.766 10.766 0 01.5869-.9314c.0066-.009.0114-.018.018-.027.0494-.0697.101-.1414.1509-.2092.0114-.0157.0223-.029.0337-.0446.0517-.0679.1034-.1352.1551-.2026.0114-.0157.0228-.0294.0337-.0427A8.6168 8.6168 0 0131 6.5074a.199.199 0 00.0294-.036c.0583-.0697.119-.1395.1803-.2111.0019-.0024.0066-.0067.0085-.0114a13.9093 13.9093 0 011.5841-1.541c.002-.0023.002-.0042.0043-.0042.083-.0698.1665-.1376.252-.2074-3.4397-2.735-8.575-4.4739-14.316-4.4739C8.3907.0224 0 5.6753 0 12.6466 0 19.6151 8.3908 25.266 18.7424 25.266c5.7563 0 10.9058-1.7502 14.3454-4.499h-.0028c-.6856-.5442-1.3023-1.1292-1.8441-1.7502m6.2355-5.961a3.24 3.24 0 01-.0114.2026c-.0019.0404-.0066.0807-.009.1215-.0067.063-.0114.1257-.018.184a2.4616 2.4616 0 01-.0157.131 4.4168 4.4168 0 01-.0228.175 9.002 9.002 0 00-.0199.1305c-.009.0541-.018.113-.027.1708-.009.0451-.0157.086-.0247.131-.0114.0583-.0247.1124-.036.166a3.3927 3.3927 0 01-.029.1352c-.0048.018-.0071.0361-.0114.0541.2069-.0583.416-.1395.6096-.2476l.0361-.018V12.894h-.4118c-.0024.0175-.0024.0403-.0024.0583-.0019.036-.0042.0674-.0066.1034" fill="#00904a"/><path d="M57.274 15.7777c-.4678 0-1.3859-.0588-2.0021-.2249-.1035-.027-.1576-.0901-.1576-.1893v-.6746c0-.0541.0499-.1125.1215-.1125h.036c.54.0674 1.5524.1258 1.8987.1258.7648 0 .873-.2965.873-.612 0-.2605-.1713-.409-.531-.6339 0 0-1.5432-.945-1.5432-.9493-.5712-.3464-.9133-.9043-.9133-1.4935 0-1.0889.6794-1.6179 2.0695-1.6179.8862 0 1.2776.0812 1.8849.2116.0991.0247.149.0878.149.1912v.6524c0 .0944-.0366.1437-.1082.1437h-.036c-.3194-.0446-1.1202-.121-1.7635-.121-.4185 0-.8507.0627-.8507.54 0 .2334.2254.3686.4863.5214l1.4755.9047c.9673.585 1.048 1.1605 1.048 1.6506 0 1.04-.8189 1.6875-2.1368 1.6875m-2.7627-5.4213c0 .0854-.0673.1532-.157.1532-.5584 0-1.0305.1257-1.5884.4137l-.036.0223v4.5754c0 .0854-.0717.167-.1528.167h-1.039c-.0812 0-.1533-.0816-.1533-.167V9.623a.1536.1536 0 01.1533-.1551h.9806c.0854 0 .1575.0697.1575.1551v.3824l.1125-.0897c.5622-.434 1.1604-.5266 1.5656-.5266.0897 0 .157.0697.157.1551zm-3.9363 2.4609c0 .1845-.0721.2115-.1533.2115H46.679v.1035c0 .4545.1395 1.5025 1.422 1.5025.796 0 1.5698-.0674 2.069-.1124h.036c.0408 0 .131.009.131.0944v.7467c0 .1533-.0138.1983-.1756.225-.7017.1261-1.1477.1892-2.1734.1892-.4455 0-2.6587-.1352-2.6587-2.7579v-.8326c0-1.7497.9854-2.7916 2.6364-2.7916 1.6107 0 2.6094 1.069 2.6094 2.7916zm-5.4617-3.174L43.6962 14.77c-.1846.6656-.6343 1.0077-1.3408 1.0077-.7021 0-1.1471-.342-1.3274-1.0077 0 0-1.4214-5.1267-1.4262-5.138l-.0042-.047c0-.0632.045-.1101.1081-.1101h1.1292c.0721 0 .13.065.1575.1708l1.0793 4.7196c.0451.2202.1443.3369.2837.3369.1395 0 .234-.1167.2833-.3369l1.0798-4.7196c.027-.1196.1039-.1708.1665-.1708h1.1296c.0627 0 .1077.047.1077.11 0 0-.0047.047-.009.0584M47.3987 0c-5.754 0-10.9034 1.7478-14.3402 4.4967 0 0 0 .0023.0023.0023.6837.5442 1.3 1.1292 1.8418 1.7474.0071.007.0137.0161.0204.0227.0607.0698.1195.1395.1779.2093.011.0133.0204.0246.029.036.0564.0698.1148.1371.1688.2069.009.0133.0204.0246.0295.038.056.0701.1076.1399.1617.2092.0067.0113.0162.0204.0204.0317.2363.315.4522.6386.6481.9674.002.0024.002.0043.0043.0067.038.0673.0764.1328.1148.2002.0133.0246.027.0493.0403.074.0337.0588.065.1195.0968.1803.018.0313.0337.0626.0493.0944.0295.0583.0584.1148.0878.1708.0157.036.0337.072.0517.1081.0252.056.0517.1101.0769.1666.0175.038.0332.0782.0512.1167.0228.054.0475.1081.0679.1622.018.0404.0337.083.0517.1234.0019.009.0066.0161.0085.0246 1.5818.0072 2.3826.7088 2.3826 2.081v4.054c0 .0849-.0678.1574-.1528.1574h-.9583c-.0859 0-.1556-.0725-.1556-.1575v-.306l-.1077.0674c-.3127.1888-.6253.3236-.9313.4047-.0071.018-.0157.036-.0223.0583-.0209.0499-.0408.104-.0612.1533a3.0117 3.0117 0 01-.0517.1262c-.02.0536-.0446.1077-.0674.1618-.0157.0403-.0337.0763-.0517.1167-.0247.054-.0494.1081-.0764.1665-.0157.036-.0337.0721-.0517.1082-.027.054-.0565.1124-.0854.1708-.0161.0317-.0318.0583-.0475.0901-.0336.0626-.065.1215-.0986.1846-.0114.018-.0228.0403-.0342.0626-.1774.315-.3734.6258-.5869.9318-.0066.0085-.0133.0175-.0204.0265-.0493.0721-.0991.1395-.1508.2116-.011.0138-.0223.027-.0314.0404-.0517.0678-.1034.1352-.155.2025-.0115.018-.0248.0314-.0361.0451a10.2273 10.2273 0 01-.1642.2021.2404.2404 0 01-.0294.036c-.0584.0722-.1167.1443-.1775.2117-.0047.0047-.009.009-.0113.0133-.4702.5399-.9987 1.0575-1.5813 1.5433-.0024 0-.0048 0-.0048.0047-.083.0674-.1684.1348-.2519.2021 3.4373 2.7356 8.5754 4.4768 14.3113 4.4768 10.3568 0 18.7471-5.651 18.7471-12.62C66.1458 5.6506 57.7555 0 47.3987 0" fill="#00904a"/><path d="M37.897 12.0435v-.567c0-.6428-.252-.8815-.6727-.9536.0114.054.0246.1077.0384.1618.009.0408.02.0854.029.1304.0113.0541.025.113.0341.1666.009.045.018.0901.0247.1352a2.779 2.779 0 01.029.1708c.0065.0403.0137.0854.0203.1305.009.0583.0157.1167.0223.1755a1.717 1.717 0 01.0157.1305c.007.0583.0113.1214.018.1798.0024.0408.0071.0811.0095.1214 0 .009.0019.0138.0019.018zm10.0686-1.5025c-.778 0-1.2776.5669-1.2776 1.4531v.1167h2.5287v-.1167c0-.8862-.4905-1.4532-1.251-1.4532" fill="#00904a"/><path d="M28.7214 11.5712c.0066-.0584.0157-.1172.0223-.1756-.0066.0584-.0157.1172-.0223.1756m-.0315.3148c.0047-.063.0114-.1262.0157-.1845-.0043.0583-.011.1214-.0157.1845m1.2934 5.408v-.0048zm-1.3157-5.084c.0019-.0673.0066-.1352.0109-.2026-.0043.0674-.0067.1353-.011.2026m.6769 3.806c-.0156-.0404-.0337-.0812-.0493-.121.0156.0398.0337.0806.0493.121m1.5004 2.5285c-.009-.0132-.018-.027-.027-.036.009.009.018.0228.027.036m-1.921-3.7972c-.0133-.054-.0294-.1077-.0427-.1665.0133.0588.0294.1125.0427.1665m-.0697-.2969c-.0138-.0583-.0247-.1124-.036-.1665.0113.0541.0222.1082.036.1665m-.0606-.3014c-.009-.0588-.0204-.1124-.0294-.1712.009.0588.0204.1124.0294.1712m.2135.9043c-.018-.0584-.036-.1167-.0518-.1708.0157.054.0337.1124.0518.1708m-.3284-1.8131c-.0047-.0721-.0066-.1395-.0109-.2068.0043.0673.0062.1347.011.2068m.0269.3014c-.0043-.0588-.011-.1214-.0157-.1798.0047.0584.0114.121.0157.1798m1.1607 3.5454c-.0133-.0228-.027-.045-.0404-.0674.0133.0223.027.0446.0404.0674m-.1373-.252c-.0157-.0317-.0337-.063-.0493-.0948.0156.0318.0336.063.0493.0949m-.1348-.2656c-.018-.036-.0337-.0721-.0517-.1077.018.0356.0336.0716.0517.1077m-.8505-2.7219c-.0066-.0583-.0156-.1167-.0223-.1755.0067.0588.0157.1172.0223.1755m1.8696-6.8452c.011-.0156.0223-.029.0337-.045-.0114.016-.0228.0294-.0337.045m-.169.2362c.0067-.009.0114-.018.018-.027-.0066.009-.0113.018-.018.027m.7651-.9784c.002-.0024.0067-.0067.009-.0114-.0023.0047-.007.009-.009.0114M29.8213 8.233c.0114-.0204.0247-.0404.036-.0631-.0113.0227-.0246.0427-.036.063m-1.0571 3.0322c.009-.0536.0204-.1124.0294-.1707-.009.0583-.0204.1171-.0294.1707m2.4765 7.7518c-.0067-.0043-.0133-.0133-.018-.018.0047.0047.0113.0137.018.018M32.802 4.708c.002-.0023.002-.0047.0043-.0047-.0024 0-.0024.0024-.0043.0047m-1.7592 14.0794c-.009-.0133-.018-.0228-.027-.036.009.0132.018.0227.027.036m2.0424 1.9796h.0024zm-4.1299-10.4015c.018-.0674.0384-.1305.0565-.1979-.018.0674-.0385.1305-.0565.1979m.1192-.405c.018-.0541.036-.1077.0541-.1642-.018.0565-.036.11-.054.1642m.6006-1.4531c.0156-.0294.0336-.0608.0493-.092-.0157.0312-.0337.0626-.0493.092m-.7942 2.1549c.0133-.054.027-.1124.0427-.1708-.0157.0584-.0294.1167-.0427.1708m.6569-1.876c.018-.036.036-.0697.0517-.1058-.0156.036-.0337.0698-.0517.1058m-.3553.8617c.0157-.045.0314-.0925.047-.1371-.0156.0446-.0313.092-.047.1371m.2272-.5783c.018-.0404.036-.0788.0517-.1172-.0156.0384-.0337.0768-.0517.1172m6.8676-.8953c.0133.0247.027.0494.0404.074-.0133-.0246-.027-.0493-.0404-.074m-.1191-.207c.0019.0024.0019.0048.0042.0067-.0023-.002-.0023-.0043-.0042-.0067m.2562.4612c.018.0313.0337.063.0493.0944-.0156-.0313-.0313-.0631-.0493-.0944m.1373.2654a2.0855 2.0855 0 000 .0001M35.299 6.7213c.009.0133.0199.0247.0289.038-.009-.0133-.02-.0247-.029-.038m-2.2406-2.2248s0 .0023.0024.0023c-.0024 0-.0024-.0023-.0024-.0023m1.8445 1.7501c.0071.0066.0138.0156.0204.0223-.0066-.0067-.0133-.0157-.0204-.0223m.5872.7221c.0067.0114.0157.0204.0204.0313-.0047-.011-.0137-.02-.0204-.0313m1.3093 2.2788c.018.0404.0337.083.0517.1234-.018-.0403-.0337-.083-.0517-.1234m-1.6984-2.7692c.011.0137.0204.0246.029.036-.0086-.0114-.018-.0223-.029-.036m.243 12.0304c-.0114.018-.0251.0313-.036.0451.0109-.0138.0246-.027.036-.045M33.344 20.56c-.0023 0-.0047 0-.0047.0048 0-.0048.0024-.0048.0048-.0048m1.5926-1.5566c-.0047.0048-.009.009-.0114.0133.0024-.0043.0067-.0085.0114-.0133m1.7973-2.8074c-.0157.0408-.0337.0768-.0518.1167.018-.0399.036-.076.0517-.1167m.1193-.2877c-.018.045-.0337.0854-.0517.1257.018-.0403.0336-.0807.0517-.1257m-1.1519 2.119c-.0066.009-.0132.018-.0204.0265a.5624.5624 0 00.0204-.0265m.7672-1.2688c-.0156.0317-.0313.0583-.047.0896.0157-.0313.0314-.0579.047-.0896m.2115-7.79c.0181.0384.0338.0788.0518.1172-.018-.0384-.0337-.0788-.0517-.1172m.6994 5.032c-.009.054-.018.1129-.027.1708.009-.0579.018-.1167.027-.1708m-.1575-3.4776c.0138.054.0271.1077.0409.1618a3.9939 3.9939 0 01-.0384-.1618zm.243 1.5025c0 .009 0 .0138.0025.018 0-.0042-.0024-.009-.0024-.018m-.0091 1.3544c-.0067.0631-.0114.1258-.018.1841.0066-.0583.0113-.121.018-.184m-.1281.9222c-.0114.0584-.0247.1125-.036.166.0113-.0535.0246-.1076.036-.166m.1551-1.3496c0-.018 0-.0408.0023-.0588h-.0024zm-.2315 1.7049c.0042-.018.0066-.036.0113-.054a.439.439 0 00-.0113.054m.0742-3.6756c-.009-.0541-.0228-.1125-.0337-.1666.011.0541.0247.1125.0337.1666m-.4117 4.7733c.0066-.0223.0156-.0403.0228-.0583h-.0024a.6848.6848 0 00-.0204.0583m.4655-4.4674c-.009-.0583-.018-.1172-.0289-.1708.011.0536.02.1125.029.1708m.0764.6163c-.0067-.0583-.0114-.1214-.018-.1797.0066.0583.0113.1214.018.1798" fill="#006e3f"/><path d="M37.2918 14.4683c.0114-.0541.0247-.1077.036-.166.0091-.0451.0157-.086.0248-.131.009-.0579.018-.1167.027-.1708A5.1488 5.1488 0 0137.4 13.87a5.5151 5.5151 0 00.0223-.175 2.4616 2.4616 0 00.0157-.131c.0066-.0583.0113-.121.018-.184.0024-.0409.0071-.0812.009-.1215a3.24 3.24 0 00.0114-.2026c.0024-.036.0047-.0674.0066-.1034v-.0584h-.3667c-1.1002 0-1.3204.3914-1.3204 1.0253v.045c0 .6434.335.7696.882.7696.1822 0 .3777-.027.5736-.0764a.3622.3622 0 01.0114-.0541 3.431 3.431 0 00.029-.1352" fill="#006338"/><path d="M33.4924 9.7963v.6547c0 .0944-.038.1438-.1106.1438h-.0332c-.3216-.0451-1.1201-.1215-1.764-.1215-.4184 0-.8453.0631-.8453.54 0 .2338.2225.369.4834.5218l1.476.9043c.9645.585 1.0456 1.1609 1.0456 1.651 0 1.0395-.8189 1.6875-2.1368 1.6875-.4678 0-1.3858-.0588-1.9998-.2253-.1058-.027-.1598-.0902-.1598-.1888v-.6747c0-.054.0498-.1129.1214-.1129h.036c.54.0679 1.5524.1262 1.9011.1262.7643 0 .8706-.297.8706-.612 0-.261-.1713-.4094-.529-.6339 0 0-1.5428-.945-1.5428-.9498-.5717-.3463-.9133-.9042-.9133-1.4935 0-1.0888.677-1.6173 2.0694-1.6173.884 0 1.2777.0787 1.8826.2092.1015.027.1485.0878.1485.1912M32.802 4.708a13.8255 13.8255 0 00-1.5837 1.541c-.0023.0042-.007.009-.009.0114-.0612.0716-.1214.1413-.1798.211a.2169.2169 0 01-.0294.0361 6.8936 6.8936 0 00-.1642.205c-.0113.0133-.0227.0266-.0336.0427a57.6933 57.6933 0 00-.1557.2021c-.0109.0161-.0223.0294-.0336.045a22.12 22.12 0 00-.151.2093c-.0066.009-.0108.018-.018.027-.2134.3037-.4089.614-.5868.9314-.0114.0223-.0247.0427-.036.063a6.7719 6.7719 0 00-.0969.1822c-.0156.0313-.0336.0631-.0493.092-.0294.0584-.0565.1149-.0854.1732-.0161.0361-.0342.0698-.0517.1058a6.4866 6.4866 0 01-.0764.1666c-.0156.0384-.0337.0763-.0517.1167-.0228.054-.045.1058-.0678.1599a3.0054 3.0054 0 00-.0494.1262c-.0204.0517-.0427.1034-.063.1551-.0157.045-.0314.092-.047.1371l-.0541.1485c-.018.0565-.0361.11-.0541.1642-.0204.072-.0427.1394-.0631.2068-.0176.0679-.038.1305-.056.1983-.0114.0446-.0204.0854-.0318.1257-.0157.0584-.029.1168-.0427.1708-.009.0451-.018.0902-.027.131a5.4705 5.4705 0 00-.036.1708c-.0086.0446-.0153.0854-.0243.1305-.009.0583-.0204.1171-.0294.1707a7.9253 7.9253 0 01-.0204.1305c-.0066.0584-.0157.1172-.0223.1756a2.4474 2.4474 0 01-.0161.1304c-.0043.0584-.011.1215-.0157.1846-.0043.0403-.0066.0806-.0109.1214a4.7842 4.7842 0 00-.0114.2026c-.0024.0356-.0024.0674-.0047.103a7.4034 7.4034 0 00-.0067.3107c0 .0992.0024.2026.0067.306.0023.036.0023.0674.0047.1035.0043.0673.0067.1352.0114.2068.0043.0408.0066.0811.011.1215.0047.0588.0113.1214.0156.1798.007.045.0114.0901.0161.1304.0066.0589.0157.1172.0223.1756.0066.0455.0138.0901.0204.1305.009.0588.0204.1124.0294.1712.009.0446.0157.0902.0242.1348.0114.054.0228.1081.036.1665.009.045.018.0897.0271.1305.0138.0583.0294.1124.0427.1665.0114.0446.0204.0896.0318.1347.0156.0541.0337.1125.0517.1713.0204.0764.0427.148.065.2201.018.0589.0384.1172.0588.176.0157.0536.0356.103.0536.1528.0162.0446.0318.0897.0475.1347.02.0541.0427.1035.063.1576.0157.0403.0338.081.0494.1214.0223.0584.0451.1125.0698.1665.0156.036.0337.0764.0517.1125.0251.0583.0493.1124.0764.1665.018.0356.0336.0716.0517.1077.027.0588.0564.1172.0858.1713.0157.0313.0337.0626.0494.0944.0313.063.065.1214.0968.1845l.0403.0674c.0384.0721.0764.1347.1172.2026v.0043c.1978.333.4137.657.6523.9763.0043.009.011.018.018.0228.0537.0716.1078.1438.1642.2159.009.009.018.0223.0266.0356.0564.0678.1129.1394.1713.2073.009.0133.018.0223.027.0356.0583.0678.119.14.1798.2116.0047.0047.0114.0137.018.018.5423.621 1.1586 1.2055 1.8446 1.7502h.0024c.083-.0674.1684-.1352.252-.2026 0-.0043.0018-.0043.0042-.0043.5826-.4858 1.1116-1.0034 1.5817-1.5433a.0673.0673 0 01.011-.0133 5.233 5.233 0 00.1779-.2116.2737.2737 0 00.0294-.036c.056-.0674.11-.1348.1641-.2022.011-.0137.0247-.0275.036-.045.0518-.0679.103-.1352.1552-.203a.5445.5445 0 01.0313-.04c.0518-.072.1016-.1399.1504-.212a.5624.5624 0 00.0204-.0266c.214-.306.4095-.6163.5874-.9313a.6423.6423 0 01.0337-.063c.0337-.0627.065-.1215.0991-.1846.0157-.0313.0313-.058.047-.0897.029-.0584.0584-.1172.0854-.1713.018-.036.036-.0716.0517-.1077l.0769-.167c.018-.0398.036-.0759.0512-.1167.0228-.054.0474-.1077.0678-.1618.018-.0403.0337-.081.0518-.1257.0204-.0498.0403-.1034.0607-.1532a.9166.9166 0 01.02-.0584c-.2088.0494-.4138.0811-.6164.0811-.8592 0-1.8801-.3155-1.8801-1.8132v-.0451c0-1.2957.8274-1.876 2.679-1.876h.3507c-.002-.0047-.002-.009-.002-.018-.0023-.0407-.007-.081-.0094-.1214-.0067-.0583-.011-.1214-.018-.1798a1.7098 1.7098 0 00-.0157-.131 4.4123 4.4123 0 00-.0223-.175 7.9253 7.9253 0 00-.0204-.1305 2.8585 2.8585 0 00-.029-.1712 2.5862 2.5862 0 00-.0246-.1348c-.009-.054-.0228-.1124-.0342-.1665-.009-.045-.0199-.0902-.0289-.1305-.0138-.054-.027-.1082-.0408-.1618-.1143-.0227-.2448-.0318-.3867-.0318-.722 0-1.473.0499-1.838.0945h-.0535c-.104 0-.1329-.0314-.1329-.1215v-.722c0-.065.018-.1348.157-.1685.41-.0811 1.0647-.178 1.8674-.178h.0247c-.0024-.009-.0066-.0156-.009-.0246-.018-.0403-.0337-.0835-.0517-.1238-.0204-.0541-.045-.1082-.0674-.1618-.018-.0384-.0337-.0787-.0517-.1172-.0247-.056-.0517-.11-.0769-.1665a2.0303 2.0303 0 01-.0517-.1077c-.029-.0565-.0583-.1124-.0873-.1713a2.0242 2.0242 0 00-.0498-.0944 4.3264 4.3264 0 00-.0968-.1798c-.0133-.0247-.0265-.0493-.0403-.0745-.038-.0673-.0764-.1323-.1148-.2002-.0024-.0019-.0024-.0043-.0043-.0066A11.0576 11.0576 0 0035.5102 7c-.0043-.011-.0133-.02-.02-.0313-.054-.0698-.1058-.1395-.1622-.2092-.009-.0133-.02-.0247-.029-.038a7.2007 7.2007 0 00-.1689-.2073c-.009-.011-.018-.0223-.0294-.036a13.8664 13.8664 0 00-.1774-.2093c-.0067-.0066-.0133-.0157-.0204-.0223-.5423-.6187-1.1586-1.2036-1.8422-1.7478-.0024 0-.0024-.0024-.0024-.0024-.0854.0698-.169.1371-.252.2069-.0023 0-.0023.0024-.0042.0047" fill="#006338"/><path d="M36.9613 9.6636c.018.0493.036.101.054.1509-.018-.0498-.036-.1016-.054-.1509m.2271.7242c.0114.0408.0223.0854.0337.1305-.0114-.045-.0223-.0897-.0337-.1305m.288 1.8446c.0024.036.0047.0673.0066.1034-.0019-.036-.0042-.0674-.0066-.1034m-.342 2.8661c-.0228.0673-.0427.1347-.065.2068.0223-.0721.0422-.1395.065-.2068m-.1193.3687c-.0156.0493-.0336.0991-.0517.1532.018-.054.036-.1039.0517-.1532m.0587-5.4707c.0223.0721.0427.1395.065.2116-.02-.0721-.0427-.1395-.065-.2116m.4115 2.8974c.0024-.0854.0024-.1666.0024-.2472 0 .0806-.0024.1618-.0048.2472zm-.5511 2.8028h.0023c.009-.027.018-.054.027-.0764-.009.0223-.018.0494-.0293.0764m.2878-.9222c.0091-.0408.0205-.0812.0295-.1172a1.4078 1.4078 0 00-.0294.1172m.2452-2.731c.0047.063.0066.1257.009.1888-.0024-.0631-.0043-.1257-.009-.1888m-.2767 2.8571c-.018.0627-.0384.13-.0564.1979.018-.0679.0384-.1352.0564-.1979m-.0519-4.6926c.0162.0584.0342.1167.0498.1798-.0156-.063-.0336-.1214-.0498-.1798m.3443 2.128c.0023.1034.0047.2026.0047.3107 0-.1081-.0024-.2073-.0048-.3107m-.2609-1.8177v.0048h.0025zm-.3104-.9898c.018.0451.0337.0902.0498.1353-.0161-.0451-.0318-.0902-.0498-.1353m.1576 5.7767c-.018.0541-.0337.1082-.054.1618.0203-.0536.036-.1077.054-.1618" fill="#fff"/></svg>